<svg xmlns="http://www.w3.org/2000/svg" viewBox="0 0 113 113">
  <defs>
    <style>
      .cls-1 {
        fill: #fff;
        stroke: #f1d102;
        stroke-width: 2px;
      }

      .cls-2 {
        fill: #ffe32e;
      }

      .cls-3 {
        stroke: none;
      }

      .cls-4 {
        fill: none;
      }
    </style>
  </defs>
  <g id="logo_shop" transform="translate(-496 -208)">
    <g id="Ellipse_6" data-name="Ellipse 6" class="cls-1" transform="translate(496 208)">
      <circle class="cls-3" cx="56.5" cy="56.5" r="56.5"/>
      <circle class="cls-4" cx="56.5" cy="56.5" r="55.5"/>
    </g>
    <g id="pawprint" transform="translate(525 240.017)">
      <path id="Path_1" data-name="Path 1" class="cls-2" d="M94.857,188.228a13.635,13.635,0,0,0-22.961,0L65.824,197.7a8.631,8.631,0,0,0,10.74,12.559l.112-.05a16.967,16.967,0,0,1,13.513.05,8.583,8.583,0,0,0,3.463.733,8.693,8.693,0,0,0,1.932-.219,8.632,8.632,0,0,0,5.345-13.073Zm2.871,17.606a5.318,5.318,0,0,1-6.218,1.42,20.255,20.255,0,0,0-16.265,0l-.073.032a5.348,5.348,0,0,1-6.584-7.813L74.66,190a10.353,10.353,0,0,1,17.433,0l6.072,9.472A5.318,5.318,0,0,1,97.728,205.835Zm0,0" transform="translate(-57.409 -162.049)"/>
      <path id="Path_2" data-name="Path 2" class="cls-2" d="M10.051,114.245a6.621,6.621,0,0,0,3.864-4.1,8.554,8.554,0,0,0-.151-5.9,8.559,8.559,0,0,0-3.842-4.476,6.621,6.621,0,0,0-5.613-.452C.681,100.715-.984,105.2.6,109.317a8,8,0,0,0,7.191,5.347,6.269,6.269,0,0,0,2.261-.419Zm-6.389-6.107c-.932-2.427-.113-5.008,1.827-5.754a3.045,3.045,0,0,1,1.1-.2,3.7,3.7,0,0,1,1.767.475,5.272,5.272,0,0,1,2.347,2.771,5.269,5.269,0,0,1,.117,3.629,3.394,3.394,0,0,1-1.945,2.124h0c-1.938.747-4.275-.619-5.21-3.044Zm0,0" transform="translate(0 -88.078)"/>
      <path id="Path_3" data-name="Path 3" class="cls-2" d="M132.639,18.746c4.536,0,8.226-4.2,8.226-9.372S137.174,0,132.639,0s-8.225,4.2-8.225,9.374S128.1,18.746,132.639,18.746Zm0-15.463c2.725,0,4.943,2.733,4.943,6.091s-2.218,6.089-4.943,6.089S127.7,12.731,127.7,9.374s2.217-6.091,4.942-6.091Zm0,0" transform="translate(-110.806)"/>
      <path id="Path_4" data-name="Path 4" class="cls-2" d="M289.149,56.9h0a6.7,6.7,0,0,0,2.118.342,8.526,8.526,0,0,0,7.761-6.107,9.191,9.191,0,0,0-.131-6.341,6.953,6.953,0,0,0-10.309-3.426,9.191,9.191,0,0,0-3.9,5c-1.493,4.493.508,9.217,4.46,10.532ZM287.8,47.4a5.911,5.911,0,0,1,2.486-3.228,3.678,3.678,0,0,1,5.565,1.85,5.91,5.91,0,0,1,.059,4.074c-.922,2.775-3.493,4.429-5.729,3.686S286.882,50.179,287.8,47.4Zm0,0" transform="translate(-253.111 -35.851)"/>
      <path id="Path_5" data-name="Path 5" class="cls-2" d="M388.891,172.3h0c-3.128-2.311-7.806-1.309-10.429,2.234s-2.211,8.31.913,10.622a6.431,6.431,0,0,0,3.862,1.247,8.316,8.316,0,0,0,6.568-3.479C392.424,179.378,392.015,174.613,388.891,172.3Zm-1.726,8.67c-1.549,2.091-4.167,2.784-5.838,1.546s-1.771-3.942-.227-6.031a5.039,5.039,0,0,1,3.908-2.158,3.207,3.207,0,0,1,1.93.613C388.607,176.176,388.709,178.881,387.165,180.969Zm0,0" transform="translate(-335.53 -152.345)"/>
    </g>
  </g>
</svg>
